<?xml version="1.0" standalone="no"?>
<!DOCTYPE svg PUBLIC "-//W3C//DTD SVG 20010904//EN"
 "http://www.w3.org/TR/2001/REC-SVG-20010904/DTD/svg10.dtd">
<svg version="1.0" xmlns="http://www.w3.org/2000/svg"
 width="512.000000pt" height="512.000000pt" viewBox="0 0 512.000000 512.000000"
 preserveAspectRatio="xMidYMid meet">
<metadata>
Created by potrace 1.14, written by Peter Selinger 2001-2017
</metadata>
<g transform="translate(0.000000,512.000000) scale(0.100000,-0.100000)"
fill="#000000" stroke="none">
<path d="M615 4950 c-177 -24 -326 -132 -405 -294 -23 -48 -44 -108 -50 -146
-14 -89 -14 -3811 0 -3900 6 -39 27 -98 50 -147 68 -138 181 -232 335 -280 57
-17 145 -18 2005 -18 1860 0 1948 1 2005 18 186 57 324 196 370 372 13 52 15
290 15 2000 0 1687 -2 1948 -15 1998 -46 177 -180 320 -354 380 l-66 22 -1915
1 c-1053 1 -1942 -2 -1975 -6z m2285 -174 c305 -53 621 -175 865 -334 422
-275 756 -707 910 -1176 l33 -101 -712 -5 c-691 -5 -712 -6 -738 -25 -54 -40
-53 -29 -53 -579 0 -476 1 -513 18 -538 41 -60 19 -58 781 -58 591 0 696 -2
696 -14 0 -35 -78 -235 -144 -371 -120 -245 -263 -443 -452 -625 -581 -561
-1393 -764 -2179 -544 -199 56 -434 167 -619 292 -648 437 -1020 1162 -993
1937 11 333 81 612 227 912 333 681 992 1149 1750 1242 115 15 498 6 610 -13z
m1930 -2079 c0 -189 -3 -405 -7 -480 l-6 -137 -711 0 c-553 0 -717 3 -736 13
l-25 13 -3 448 c-2 407 -1 451 14 468 16 17 51 18 746 18 l728 0 0 -343z"/>
<path d="M2445 3110 c-119 -25 -245 -97 -315 -178 -59 -69 -116 -187 -130
-273 -78 -462 384 -802 807 -594 286 141 388 523 213 794 -104 160 -254 247
-444 256 -50 2 -109 0 -131 -5z"/>
</g>
</svg>
